<?xml version="1.0" encoding="UTF-8" standalone="no"?>
<svg
   height="60.000011"
   width="159.72406"
   id="svg548"
   version="1.1"
   class="icon"
   viewBox="0 0 159.72406 60.000011"
   data-v-423bf9ae=""
   sodipodi:docname="404.svg"
   inkscape:version="1.1 (c68e22c387, 2021-05-23)"
   xmlns:inkscape="http://www.inkscape.org/namespaces/inkscape"
   xmlns:sodipodi="http://sodipodi.sourceforge.net/DTD/sodipodi-0.dtd"
   xmlns="http://www.w3.org/2000/svg"
   xmlns:svg="http://www.w3.org/2000/svg"
   xmlns:rdf="http://www.w3.org/1999/02/22-rdf-syntax-ns#"
   xmlns:cc="http://creativecommons.org/ns#"
   xmlns:dc="http://purl.org/dc/elements/1.1/">
  <sodipodi:namedview
     id="namedview852"
     pagecolor="#505050"
     bordercolor="#eeeeee"
     borderopacity="1"
     inkscape:pageshadow="0"
     inkscape:pageopacity="0"
     inkscape:pagecheckerboard="0"
     showgrid="false"
     inkscape:zoom="5.6267836"
     inkscape:cx="79.174895"
     inkscape:cy="37.588082"
     inkscape:window-width="1920"
     inkscape:window-height="1001"
     inkscape:window-x="-9"
     inkscape:window-y="-9"
     inkscape:window-maximized="1"
     inkscape:current-layer="svg548" />
  <text
     transform="matrix(2.0461812,0,0,2.0631296,-3.0772647,-32.077344)"
     style="font-style:normal;font-weight:normal;font-size:40px;line-height:1.25;font-family:sans-serif;white-space:pre;shape-inside:url(#rect558);fill:#ffffff;fill-opacity:1;stroke:none"
     id="text556"
     xml:space="preserve"><tspan
       x="0"
       y="44.629931"
       id="tspan1122">4</tspan></text>
  <text
     id="text564"
     y="59.753033"
     x="112.08408"
     style="font-style:normal;font-weight:normal;font-size:82.1855px;line-height:1.25;font-family:sans-serif;fill:#ffffff;fill-opacity:1;stroke:none;stroke-width:2.05463"
     xml:space="preserve"
     transform="scale(0.99588391,1.0041331)"><tspan
       style="fill:#ffffff;stroke-width:2.05463"
       y="59.753033"
       x="112.08408"
       id="tspan562">4</tspan></text>
  <metadata
     id="metadata554">
    <rdf:RDF>
      <cc:Work
         rdf:about="">
        <dc:format>image/svg+xml</dc:format>
        <dc:type
           rdf:resource="http://purl.org/dc/dcmitype/StillImage" />
        <dc:title />
      </cc:Work>
    </rdf:RDF>
  </metadata>
  <defs
     id="defs552">
    <rect
       id="rect558"
       height="81.391228"
       width="58.412006"
       y="8.1358967"
       x="0" />
  </defs>
  <!---->
  <!---->
  <!---->
  <!---->
  <!---->
  <g
     id="g993"
     transform="matrix(0.21289486,0,0,0.19480519,35.056917,-10.987024)"
     style="fill:#ffffff">
    <g
       id="g938"
       style="fill:#ffffff">
	<g
   id="g936"
   style="fill:#ffffff">
		<path
   d="M 413.6,204 H 378 c 14.8,-33.6 13.2,-60.8 7.6,-79.2 -9.6,-32.8 -42,-68.4 -90,-68.4 -12.8,0 -25.6,2.4 -38.8,7.2 C 234,72 218.8,81.2 212,86 205.2,81.2 190.4,72 167.2,63.6 154,58.8 140.8,56.4 128.4,56.4 80.4,56.4 48,92 38.4,124.8 32.8,144.4 30.8,174 49.6,211.2 H 6.4 c -3.6,0 -6.4,2.8 -6.4,6.4 0,3.6 2.8,6.4 6.4,6.4 h 50.8 c 2,3.6 4.4,7.2 7.2,10.8 41.6,60 132,125.2 148.4,129.2 v 0.4 c 0,0 0.4,0 0.8,-0.4 0.4,0 0.8,0 1.2,0 v -0.4 c 14,-6.8 100.8,-62.8 146.4,-129.2 4.4,-6 8,-12 11.2,-18 h 42 c 3.6,0 6.4,-2.8 6.4,-6.4 0,-3.6 -3.6,-6 -7.2,-6 z m -64,23.6 c -42.4,62 -120.4,112 -137.2,122.8 C 195.2,339.6 117.6,289.2 74.8,227.6 74,226.4 73.2,225.2 72.4,224 h 58.8 c 2.4,0 4.8,-1.2 6,-3.6 l 26.8,-52.8 42,107.6 c 0.8,2.4 3.6,4 6,4 0,0 0,0 0.4,0 2.8,0 5.2,-2 6,-4.8 l 36.8,-126 19.6,63.6 c 0.8,2.4 2.8,4 5.2,4.4 2.4,0.4 4.8,-0.8 6.4,-2.8 l 15.6,-22.8 13.2,22.4 c 1.2,2 3.2,3.2 5.6,3.2 h 36 c -2.4,4 -4.8,7.6 -7.2,11.2 z M 364,204 h -39.2 l -16.4,-28 c -1.2,-2 -3.2,-3.2 -5.6,-3.2 -2.4,0 -4.4,0.8 -5.6,2.8 l -13.6,20 -22,-71.6 c -0.8,-2.8 -3.6,-4.4 -6.4,-4.8 -2.8,0 -5.6,2 -6.4,4.8 L 211.6,252.4 171.2,149.2 c -0.8,-2.4 -3.2,-4 -5.6,-4 -2.8,0 -4.8,1.2 -6,3.6 l -31.6,62 H 64.4 C 48.4,181.6 44,153.6 51.2,128.4 c 8.4,-28.4 36,-58.8 77.6,-58.8 11.2,0 22.8,2.4 34.4,6.4 29.2,10.8 44.8,23.2 45.2,23.2 2.4,2 5.6,2 8,0 0,0 15.6,-12.4 45.2,-23.2 11.6,-4.4 23.2,-6.4 34.4,-6.4 41.2,0 69.2,30.4 77.6,58.8 6.8,23.2 3.2,48.8 -9.6,75.6 z"
   id="path934"
   style="fill:#ffffff" />

	</g>

</g>
    <g
       id="g940"
       style="fill:#ffffff">
</g>
    <g
       id="g942"
       style="fill:#ffffff">
</g>
    <g
       id="g944"
       style="fill:#ffffff">
</g>
    <g
       id="g946"
       style="fill:#ffffff">
</g>
    <g
       id="g948"
       style="fill:#ffffff">
</g>
    <g
       id="g950"
       style="fill:#ffffff">
</g>
    <g
       id="g952"
       style="fill:#ffffff">
</g>
    <g
       id="g954"
       style="fill:#ffffff">
</g>
    <g
       id="g956"
       style="fill:#ffffff">
</g>
    <g
       id="g958"
       style="fill:#ffffff">
</g>
    <g
       id="g960"
       style="fill:#ffffff">
</g>
    <g
       id="g962"
       style="fill:#ffffff">
</g>
    <g
       id="g964"
       style="fill:#ffffff">
</g>
    <g
       id="g966"
       style="fill:#ffffff">
</g>
    <g
       id="g968"
       style="fill:#ffffff">
</g>
  </g>
</svg>
