<?xml version="1.0" encoding="UTF-8" standalone="no"?><!-- Generator: Gravit.io --><svg xmlns="http://www.w3.org/2000/svg" xmlns:xlink="http://www.w3.org/1999/xlink" style="isolation:isolate" viewBox="238.385 542.895 138.631 138.63" width="138.631pt" height="138.63pt"><g><linearGradient id="_lgradient_5" x1="0" y1="0" x2="1" y2="0" gradientTransform="matrix(-110,155,-155,-110,348.573,554.616)" gradientUnits="userSpaceOnUse"><stop offset="0%" stop-opacity="1" style="stop-color:rgb(240,238,240)"/><stop offset="100%" stop-opacity="1" style="stop-color:rgb(254,254,254)"/></linearGradient><path d=" M 377.016 612.211 C 377.016 573.928 345.981 542.895 307.701 542.895 C 269.419 542.895 238.385 573.928 238.385 612.211 C 238.385 650.492 269.419 681.525 307.701 681.525 C 307.899 681.525 308.095 681.512 308.294 681.512 L 308.294 633.155 L 291.604 633.155 L 291.604 613.826 L 308.294 613.826 L 308.294 599.574 C 308.294 583.033 318.396 574.026 333.149 574.026 C 340.219 574.026 346.293 574.553 348.064 574.787 L 348.064 592.074 L 337.829 592.078 C 329.805 592.078 328.252 595.891 328.252 601.486 L 328.252 613.826 L 347.39 613.826 L 344.898 633.155 L 328.252 633.155 L 328.252 678.427 C 356.499 669.669 377.016 643.336 377.016 612.211 Z " fill="url(#_lgradient_5)"/><linearGradient id="_lgradient_6" x1="0" y1="0" x2="1" y2="0" gradientTransform="matrix(-56,103,-103,-56,350.16,572.13)" gradientUnits="userSpaceOnUse"><stop offset="0%" stop-opacity="1" style="stop-color:rgb(55,52,56)"/><stop offset="100%" stop-opacity="1" style="stop-color:rgb(80,76,80)"/></linearGradient><path d=" M 344.898 633.155 L 347.39 613.826 L 328.252 613.826 L 328.252 601.486 C 328.252 595.891 329.805 592.078 337.829 592.078 L 348.064 592.074 L 348.064 574.787 C 346.293 574.553 340.219 574.026 333.149 574.026 C 318.396 574.026 308.294 583.033 308.294 599.574 L 308.294 613.826 L 291.604 613.826 L 291.604 633.155 L 308.294 633.155 L 308.294 681.512 C 315.237 681.452 321.939 680.384 328.252 678.427 L 328.252 633.155 L 344.898 633.155 Z " fill="url(#_lgradient_6)"/></g></svg>