<?xml version="1.0" encoding="UTF-8" standalone="no"?><!-- Generator: Gravit.io --><svg xmlns="http://www.w3.org/2000/svg" xmlns:xlink="http://www.w3.org/1999/xlink" style="isolation:isolate" viewBox="238.385 369.568 138.631 138.63" width="138.631pt" height="138.63pt"><g><linearGradient id="_lgradient_9" x1="0" y1="0" x2="1" y2="0" gradientTransform="matrix(-105.333,144,-144,-105.333,361.382,365.495)" gradientUnits="userSpaceOnUse"><stop offset="0%" stop-opacity="1" style="stop-color:rgb(55,52,56)"/><stop offset="100%" stop-opacity="1" style="stop-color:rgb(80,76,80)"/></linearGradient><path d=" M 377.016 438.884 C 377.016 400.602 345.981 369.568 307.701 369.568 C 269.419 369.568 238.385 400.602 238.385 438.884 C 238.385 477.165 269.419 508.198 307.701 508.198 C 307.899 508.198 308.095 508.185 308.294 508.185 L 308.294 459.828 L 291.604 459.828 L 291.604 440.5 L 308.294 440.5 L 308.294 426.247 C 308.294 409.706 318.396 400.699 333.149 400.699 C 340.219 400.699 346.293 401.227 348.064 401.461 L 348.064 418.748 L 337.829 418.752 C 329.805 418.752 328.252 422.564 328.252 428.16 L 328.252 440.5 L 347.39 440.5 L 344.898 459.828 L 328.252 459.828 L 328.252 505.101 C 356.499 496.342 377.016 470.01 377.016 438.884 Z " fill="url(#_lgradient_9)"/><path d=" M 344.898 459.828 L 347.39 440.5 L 328.252 440.5 L 328.252 428.16 C 328.252 422.564 329.805 418.752 337.829 418.752 L 348.064 418.748 L 348.064 401.461 C 346.293 401.227 340.219 400.699 333.149 400.699 C 318.396 400.699 308.294 409.706 308.294 426.247 L 308.294 440.5 L 291.604 440.5 L 291.604 459.828 L 308.294 459.828 L 308.294 508.185 C 315.237 508.126 321.939 507.057 328.252 505.101 L 328.252 459.828 L 344.898 459.828 Z " fill="rgb(254,254,254)"/></g></svg>