<?xml version="1.0" encoding="UTF-8" standalone="no"?><!-- Generator: Gravit.io --><svg xmlns="http://www.w3.org/2000/svg" xmlns:xlink="http://www.w3.org/1999/xlink" style="isolation:isolate" viewBox="238.385 196.241 138.631 138.631" width="138.631pt" height="138.631pt"><g><path d=" M 377.016 265.558 C 377.016 227.275 345.981 196.241 307.701 196.241 C 269.419 196.241 238.385 227.275 238.385 265.558 C 238.385 303.838 269.419 334.872 307.701 334.872 C 307.899 334.872 308.095 334.858 308.294 334.858 L 308.294 286.502 L 291.604 286.502 L 291.604 267.173 L 308.294 267.173 L 308.294 252.921 C 308.294 236.38 318.396 227.373 333.149 227.373 C 340.219 227.373 346.293 227.899 348.064 228.134 L 348.064 245.421 L 337.829 245.425 C 329.805 245.425 328.252 249.238 328.252 254.833 L 328.252 267.173 L 347.39 267.173 L 344.898 286.502 L 328.252 286.502 L 328.252 331.774 C 356.499 323.016 377.016 296.683 377.016 265.558 Z " fill="rgb(66,92,154)"/><path d=" M 344.898 286.502 L 347.39 267.173 L 328.252 267.173 L 328.252 254.833 C 328.252 249.238 329.805 245.425 337.829 245.425 L 348.064 245.421 L 348.064 228.134 C 346.293 227.899 340.219 227.373 333.149 227.373 C 318.396 227.373 308.294 236.38 308.294 252.921 L 308.294 267.173 L 291.604 267.173 L 291.604 286.502 L 308.294 286.502 L 308.294 334.858 C 315.237 334.799 321.939 333.73 328.252 331.774 L 328.252 286.502 L 344.898 286.502 Z " fill="rgb(254,254,254)"/></g></svg>