<?xml version="1.0" encoding="UTF-8" standalone="no"?>
<svg width="40" height="40" viewBox="0 0 40 40" fill="none" xmlns="http://www.w3.org/2000/svg">
<circle cx="20" cy="20" r="20" fill="#F3EFEF"/>
<g clip-path="url(#clip0)">
<path d="M32.9863 20.5522C32.9863 19.4622 32.8978 18.6667 32.7064 17.8418H20.259V22.7618H27.5653C27.4181 23.9845 26.6226 25.8258 24.8549 27.0631L24.8301 27.2278L28.7658 30.2767L29.0384 30.3039C31.5426 27.9912 32.9863 24.5884 32.9863 20.5522Z" fill="#4285F4"/>
<path d="M20.259 33.5153C23.8386 33.5153 26.8436 32.3368 29.0386 30.304L24.855 27.0632C23.7355 27.8439 22.2329 28.3889 20.259 28.3889C16.7531 28.3889 13.7776 26.0763 12.7168 22.8797L12.5614 22.8929L8.46901 26.06L8.41549 26.2088C10.5956 30.5396 15.0738 33.5153 20.259 33.5153Z" fill="#34A853"/>
<path d="M12.7168 22.8797C12.4369 22.0548 12.2749 21.1709 12.2749 20.2576C12.2749 19.3443 12.4369 18.4604 12.7021 17.6355L12.6947 17.4599L8.55102 14.2419L8.41545 14.3064C7.51692 16.1035 7.00134 18.1217 7.00134 20.2576C7.00134 22.3936 7.51692 24.4116 8.41545 26.2088L12.7168 22.8797Z" fill="#FBBC05"/>
<path d="M20.259 12.1263C22.7484 12.1263 24.4277 13.2016 25.3852 14.1002L29.1268 10.447C26.8289 8.31105 23.8385 7.00002 20.259 7.00002C15.0738 7.00002 10.5956 9.97559 8.41549 14.3064L12.7021 17.6356C13.7775 14.439 16.7531 12.1263 20.259 12.1263Z" fill="#EB4335"/>
</g>
<defs>
<clipPath id="clip0">
<rect width="26" height="26.6066" fill="white" transform="translate(7 7)"/>
</clipPath>
</defs>
</svg>
