<?xml version="1.0" encoding="UTF-8" standalone="no"?><!-- Generator: Gravit.io --><svg xmlns="http://www.w3.org/2000/svg" xmlns:xlink="http://www.w3.org/1999/xlink" style="isolation:isolate" viewBox="63.7041 542.895 138.6309 138.63" width="138.6309pt" height="138.63pt"><g><radialGradient id="_rgradient_1" fx="-0.41973" fy="0.00639503" cx="0" cy="0" r="1" gradientTransform="matrix(128.03,-148.324,120.439,103.96,131.931,617.65)" gradientUnits="userSpaceOnUse"><stop offset="0%" stop-opacity="1" style="stop-color:rgb(254,254,254)"/><stop offset="100%" stop-opacity="1" style="stop-color:rgb(240,238,240)"/></radialGradient><path d=" M 202.335 612.211 C 202.335 650.492 171.301 681.525 133.02 681.525 C 94.738 681.525 63.704 650.492 63.704 612.211 C 63.704 573.928 94.738 542.895 133.02 542.895 C 171.301 542.895 202.335 573.928 202.335 612.211 Z " fill="url(#_rgradient_1)"/><linearGradient id="_lgradient_4" x1="0" y1="0" x2="1" y2="0" gradientTransform="matrix(-102.667,114,-114,-102.667,178.331,561.897)" gradientUnits="userSpaceOnUse"><stop offset="0%" stop-opacity="1" style="stop-color:rgb(55,52,56)"/><stop offset="100%" stop-opacity="1" style="stop-color:rgb(80,76,80)"/></linearGradient><path d=" M 159.518 580.544 C 156.434 580.544 153.934 583.043 153.934 586.129 C 153.934 589.211 156.434 591.711 159.518 591.711 C 162.602 591.711 165.101 589.211 165.101 586.129 C 165.101 583.043 162.602 580.544 159.518 580.544 Z  M 133.02 592.018 C 121.885 592.018 112.828 601.076 112.828 612.211 C 112.828 623.344 121.885 632.402 133.02 632.402 C 144.153 632.402 153.211 623.344 153.211 612.211 C 153.211 601.076 144.153 592.018 133.02 592.018 Z  M 133.02 639.12 C 118.181 639.12 106.11 627.048 106.11 612.211 C 106.11 597.371 118.181 585.3 133.02 585.3 C 147.858 585.3 159.93 597.371 159.93 612.211 C 159.93 627.048 147.858 639.12 133.02 639.12 Z  M 114.241 572.148 C 101.276 572.148 90.728 582.696 90.728 595.661 L 90.728 628.759 C 90.728 641.724 101.276 652.271 114.241 652.271 L 151.799 652.271 C 164.763 652.271 175.311 641.724 175.311 628.759 L 175.311 595.661 C 175.311 582.696 164.763 572.148 151.799 572.148 L 114.241 572.148 Z  M 151.799 658.99 L 114.241 658.99 C 97.571 658.99 84.01 645.427 84.01 628.759 L 84.01 595.661 C 84.01 578.992 97.571 565.43 114.241 565.43 L 151.799 565.43 C 168.467 565.43 182.029 578.992 182.029 595.661 L 182.029 628.759 C 182.029 645.427 168.467 658.99 151.799 658.99 Z " fill-rule="evenodd" fill="url(#_lgradient_4)"/></g></svg>