<?xml version="1.0" encoding="UTF-8" standalone="no"?><!-- Generator: Gravit.io --><svg xmlns="http://www.w3.org/2000/svg" xmlns:xlink="http://www.w3.org/1999/xlink" style="isolation:isolate" viewBox="63.7041 369.568 138.6309 138.63" width="138.6309pt" height="138.63pt"><g><radialGradient id="_rgradient_2" fx="-0.41973" fy="0.00639503" cx="0" cy="0" r="1" gradientTransform="matrix(131.108,-145.61,118.236,106.46,131.931,444.323)" gradientUnits="userSpaceOnUse"><stop offset="0%" stop-opacity="1" style="stop-color:rgb(80,76,80)"/><stop offset="100%" stop-opacity="1" style="stop-color:rgb(55,52,56)"/></radialGradient><path d=" M 202.335 438.884 C 202.335 477.165 171.301 508.198 133.02 508.198 C 94.738 508.198 63.704 477.165 63.704 438.884 C 63.704 400.602 94.738 369.568 133.02 369.568 C 171.301 369.568 202.335 400.602 202.335 438.884 Z " fill="url(#_rgradient_2)"/><path d=" M 114.241 398.822 C 101.276 398.822 90.728 409.369 90.728 422.335 L 90.728 455.432 C 90.728 468.396 101.276 478.943 114.241 478.943 L 151.799 478.943 C 164.763 478.943 175.311 468.396 175.311 455.432 L 175.311 422.335 C 175.311 409.369 164.763 398.822 151.799 398.822 L 114.241 398.822 Z  M 151.799 485.663 L 114.241 485.663 C 97.571 485.663 84.01 472.1 84.01 455.432 L 84.01 422.335 C 84.01 405.666 97.571 392.104 114.241 392.104 L 151.799 392.104 C 168.467 392.104 182.029 405.666 182.029 422.335 L 182.029 455.432 C 182.029 472.1 168.467 485.663 151.799 485.663 Z " fill="rgb(254,254,254)"/><path d=" M 133.02 418.691 C 121.885 418.691 112.828 427.749 112.828 438.884 C 112.828 450.018 121.885 459.075 133.02 459.075 C 144.153 459.075 153.211 450.018 153.211 438.884 C 153.211 427.749 144.153 418.691 133.02 418.691 Z  M 133.02 465.793 C 118.181 465.793 106.11 453.721 106.11 438.884 C 106.11 424.044 118.181 411.974 133.02 411.974 C 147.858 411.974 159.93 424.044 159.93 438.884 C 159.93 453.721 147.858 465.793 133.02 465.793 Z " fill="rgb(254,254,254)"/><path d=" M 165.101 412.802 C 165.101 415.884 162.602 418.385 159.518 418.385 C 156.434 418.385 153.934 415.884 153.934 412.802 C 153.934 409.717 156.434 407.218 159.518 407.218 C 162.602 407.218 165.101 409.717 165.101 412.802 Z " fill="rgb(254,254,254)"/></g></svg>