<?xml version="1.0" encoding="UTF-8" standalone="no"?><!-- Generator: Gravit.io --><svg xmlns="http://www.w3.org/2000/svg" xmlns:xlink="http://www.w3.org/1999/xlink" style="isolation:isolate" viewBox="587.552 543.62 138.631 138.631" width="138.631pt" height="138.631pt"><g><linearGradient id="_lgradient_2" x1="0" y1="0" x2="1" y2="0" gradientTransform="matrix(-88,130,-130,-88,698.898,550.846)" gradientUnits="userSpaceOnUse"><stop offset="0%" stop-opacity="1" style="stop-color:rgb(240,238,240)"/><stop offset="100%" stop-opacity="1" style="stop-color:rgb(254,254,254)"/></linearGradient><path d=" M 726.183 612.937 C 726.183 651.218 695.148 682.251 656.867 682.251 C 618.586 682.251 587.552 651.218 587.552 612.937 C 587.552 574.653 618.586 543.62 656.867 543.62 C 695.148 543.62 726.183 574.653 726.183 612.937 Z " fill="url(#_lgradient_2)"/><path d=" M 701.183 580.56 L 701.183 580.56 C 701.183 580.56 701.183 580.56 701.183 580.561 C 701.183 580.561 701.183 580.561 701.183 580.56 Z " fill="rgb(254,254,254)"/><linearGradient id="_lgradient_3" x1="0" y1="0" x2="1" y2="0" gradientTransform="matrix(-61,88,-88,-61,688.653,557.486)" gradientUnits="userSpaceOnUse"><stop offset="0%" stop-opacity="1" style="stop-color:rgb(55,52,56)"/><stop offset="100%" stop-opacity="1" style="stop-color:rgb(80,76,80)"/></linearGradient><path d=" M 697.944 588.964 C 696.155 589.459 694.746 589.381 694.746 589.381 L 694.804 589.041 C 696.47 587.706 700.673 583.614 701.228 581.7 C 701.468 580.872 701.183 580.588 701.181 580.56 L 695.813 582.84 L 691.321 584.866 L 691.321 584.866 C 688.221 581.583 683.528 579.493 678.279 579.493 C 668.941 579.493 661.37 586.107 661.37 594.27 C 661.37 595.763 661.594 598.486 662.063 599.845 C 662.063 600.272 662.08 599.416 662.063 599.845 C 656.049 599.68 648.342 597.214 641.478 593.735 C 627.938 586.876 627.091 582.128 627.091 582.128 C 624.966 584.385 623.867 591.862 626.024 597.725 C 627.403 601.477 632.146 604.846 632.146 604.846 L 632.146 604.846 C 632.146 604.846 630.026 604.885 627.805 604.132 C 625.582 603.382 624.742 602.637 624.742 602.637 C 623.422 605.859 626.073 611.613 630.653 615.741 C 633.323 618.149 638.2 619.657 638.2 619.657 L 630.581 619.873 C 630.153 627.278 646.112 631.677 646.112 631.677 L 646.112 631.677 C 641.436 635.275 636.008 637.467 630.189 637.467 C 627.174 637.467 624.261 637.016 621.496 636.189 C 629.182 642.522 639.059 646.895 649.801 646.33 C 678.297 644.833 694.383 620.338 695.148 596.281 L 695.187 596.33 C 695.187 596.33 696.521 595.664 699.375 592.809 C 702.229 589.955 704.005 586.614 704.005 586.614 C 704.005 586.614 699.736 588.47 697.944 588.964 Z " fill="url(#_lgradient_3)"/><path d=" M 701.183 580.561 C 701.204 581.016 701.183 580.605 701.183 580.561 L 701.183 580.561 Z " fill="rgb(254,254,254)"/></g></svg>