<?xml version="1.0" encoding="UTF-8" standalone="no"?><!-- Generator: Gravit.io --><svg xmlns="http://www.w3.org/2000/svg" xmlns:xlink="http://www.w3.org/1999/xlink" style="isolation:isolate" viewBox="587.552 370.293 138.631 138.632" width="138.631pt" height="138.632pt"><g><linearGradient id="_lgradient_8" x1="0" y1="0" x2="1" y2="0" gradientTransform="matrix(-104,132,-132,-104,707.646,375.16)" gradientUnits="userSpaceOnUse"><stop offset="0%" stop-opacity="1" style="stop-color:rgb(55,52,56)"/><stop offset="100%" stop-opacity="1" style="stop-color:rgb(80,76,80)"/></linearGradient><path d=" M 726.183 439.609 C 726.183 477.892 695.148 508.925 656.867 508.925 C 618.586 508.925 587.552 477.892 587.552 439.609 C 587.552 401.327 618.586 370.293 656.867 370.293 C 695.148 370.293 726.183 401.327 726.183 439.609 Z " fill="url(#_lgradient_8)"/><path d=" M 701.183 407.233 L 701.183 407.233 C 701.183 407.233 701.183 407.232 701.183 407.233 L 701.183 407.233 Z " fill="rgb(254,254,254)"/><path d=" M 697.944 415.637 C 696.155 416.132 694.746 416.054 694.746 416.054 L 694.804 415.715 C 696.47 414.38 700.673 410.287 701.228 408.373 C 701.468 407.545 701.183 407.261 701.181 407.233 L 695.813 409.513 L 691.321 411.539 L 691.321 411.539 C 688.221 408.257 683.528 406.166 678.279 406.166 C 668.941 406.166 661.37 412.781 661.37 420.942 C 661.37 422.436 661.594 425.159 662.063 426.518 C 662.063 426.945 662.08 426.089 662.063 426.518 C 656.049 426.353 648.342 423.887 641.478 420.409 C 627.938 413.549 627.091 408.802 627.091 408.802 C 624.966 411.059 623.867 418.535 626.024 424.398 C 627.403 428.15 632.146 431.52 632.146 431.52 L 632.146 431.52 C 632.146 431.52 630.026 431.558 627.805 430.806 C 625.582 430.055 624.742 429.311 624.742 429.311 C 623.422 432.532 626.073 438.287 630.653 442.414 C 633.323 444.822 638.2 446.33 638.2 446.33 L 630.581 446.547 C 630.153 453.951 646.112 458.35 646.112 458.35 L 646.112 458.35 C 641.436 461.949 636.008 464.14 630.189 464.14 C 627.174 464.14 624.261 463.688 621.496 462.863 C 629.182 469.195 639.059 473.567 649.801 473.003 C 678.297 471.506 694.383 447.011 695.148 422.954 L 695.187 423.003 C 695.187 423.003 696.521 422.338 699.375 419.482 C 702.229 416.628 704.005 413.287 704.005 413.287 C 704.005 413.287 699.736 415.143 697.944 415.637 Z " fill="rgb(254,254,254)"/><path d=" M 701.183 407.233 C 701.204 407.689 701.183 407.279 701.183 407.233 L 701.183 407.233 Z " fill="rgb(254,254,254)"/></g></svg>