<?xml version="1.0" encoding="UTF-8" standalone="no"?><!-- Generator: Gravit.io --><svg xmlns="http://www.w3.org/2000/svg" xmlns:xlink="http://www.w3.org/1999/xlink" style="isolation:isolate" viewBox="587.552 196.967 138.631 138.631" width="138.631pt" height="138.631pt"><g><path d=" M 726.183 266.283 C 726.183 304.564 695.148 335.598 656.867 335.598 C 618.586 335.598 587.552 304.564 587.552 266.283 C 587.552 228 618.586 196.967 656.867 196.967 C 695.148 196.967 726.183 228 726.183 266.283 Z " fill="rgb(14,188,235)"/><path d=" M 701.183 233.907 L 701.183 233.907 C 701.183 233.907 701.183 233.906 701.183 233.907 C 701.183 233.907 701.183 233.907 701.183 233.907 Z " fill="rgb(254,254,254)"/><path d=" M 697.944 242.31 C 696.155 242.805 694.746 242.728 694.746 242.728 L 694.804 242.388 C 696.47 241.053 700.673 236.96 701.228 235.047 C 701.468 234.219 701.183 233.934 701.181 233.907 L 695.813 236.187 L 691.321 238.213 L 691.321 238.213 C 688.221 234.93 683.528 232.84 678.279 232.84 C 668.941 232.84 661.37 239.454 661.37 247.616 C 661.37 249.109 661.594 251.833 662.063 253.191 C 662.063 253.619 662.08 252.762 662.063 253.191 C 656.049 253.026 648.342 250.56 641.478 247.082 C 627.938 240.222 627.091 235.475 627.091 235.475 C 624.966 237.731 623.867 245.208 626.024 251.071 C 627.403 254.824 632.146 258.193 632.146 258.193 L 632.146 258.193 C 632.146 258.193 630.026 258.231 627.805 257.479 C 625.582 256.729 624.742 255.984 624.742 255.984 C 623.422 259.206 626.073 264.96 630.653 269.088 C 633.323 271.496 638.2 273.003 638.2 273.003 L 630.581 273.22 C 630.153 280.625 646.112 285.023 646.112 285.023 L 646.112 285.023 C 641.436 288.623 636.008 290.813 630.189 290.813 C 627.174 290.813 624.261 290.362 621.496 289.536 C 629.182 295.869 639.059 300.241 649.801 299.676 C 678.297 298.18 694.383 273.684 695.148 249.627 L 695.187 249.676 C 695.187 249.676 696.521 249.011 699.375 246.156 C 702.229 243.302 704.005 239.961 704.005 239.961 C 704.005 239.961 699.736 241.816 697.944 242.31 Z " fill="rgb(254,254,254)"/><path d=" M 701.183 233.907 C 701.204 234.362 701.183 233.952 701.183 233.907 L 701.183 233.907 Z " fill="rgb(254,254,254)"/></g></svg>