<?xml version="1.0" encoding="UTF-8" standalone="no"?><!-- Generator: Gravit.io --><svg xmlns="http://www.w3.org/2000/svg" xmlns:xlink="http://www.w3.org/1999/xlink" style="isolation:isolate" viewBox="413.066 542.895 138.242 138.237" width="138.242pt" height="138.237pt"><g><linearGradient id="_lgradient_0" x1="0" y1="0" x2="1" y2="0" gradientTransform="matrix(-108,155,-155,-108,533.802,537.936)" gradientUnits="userSpaceOnUse"><stop offset="0%" stop-opacity="1" style="stop-color:rgb(240,238,240)"/><stop offset="100%" stop-opacity="1" style="stop-color:rgb(254,254,254)"/></linearGradient><path d=" M 482.186 681.132 C 470.087 681.132 458.222 677.933 447.711 671.855 L 420.781 681.132 L 426.316 652.616 C 417.64 640.725 413.066 626.737 413.066 612.015 C 413.066 573.9 444.073 542.895 482.186 542.895 C 520.303 542.895 551.308 573.9 551.308 612.015 C 551.308 650.126 520.303 681.132 482.186 681.132 Z " fill="url(#_lgradient_0)"/><linearGradient id="_lgradient_1" x1="0" y1="0" x2="1" y2="0" gradientTransform="matrix(-80,104,-104,-80,514.429,570.098)" gradientUnits="userSpaceOnUse"><stop offset="0%" stop-opacity="1" style="stop-color:rgb(55,52,56)"/><stop offset="100%" stop-opacity="1" style="stop-color:rgb(80,76,80)"/></linearGradient><path d=" M 458.907 605.517 C 460.229 611.337 465.83 617.733 472.138 624.043 C 478.445 630.35 490.282 634.395 495.253 634.395 C 500.225 634.395 503.531 630.907 504.663 629.775 C 505.795 628.645 506.348 625.298 506.348 623.932 C 506.348 622.564 505.442 622.234 505.442 622.234 C 505.442 622.234 497.701 618.374 495.915 617.559 C 494.126 616.743 493.05 618.131 493.05 618.131 C 493.05 618.131 489.695 622.322 489.08 622.939 C 488.461 623.556 487.49 623.425 487.49 623.425 C 487.49 623.425 480.703 620.902 477.17 617.365 C 473.63 613.83 471.92 611.072 470.817 609.574 C 469.714 608.073 470.817 606.662 470.817 606.662 C 470.817 606.662 472.803 604.678 473.685 603.311 C 474.566 601.942 473.991 600.531 473.991 600.531 C 473.991 600.531 470.641 592.325 469.89 590.914 C 469.141 589.503 466.36 589.503 464.199 589.769 C 462.041 590.032 459.39 594.664 459.39 594.664 C 457.761 597.062 457.584 599.692 458.907 605.517 Z  M 460.476 643.722 L 461.837 644.574 C 467.969 648.418 475.007 650.45 482.186 650.45 C 503.383 650.45 520.625 633.208 520.625 612.013 C 520.625 590.818 503.383 573.576 482.186 573.576 C 460.992 573.576 443.75 590.818 443.75 612.013 C 443.75 620.636 446.574 628.807 451.914 635.64 L 452.858 636.847 L 450.882 647.026 L 460.476 643.722 Z  M 482.186 657.169 C 474.283 657.169 466.53 655.077 459.665 651.106 L 442.071 657.169 L 445.686 638.538 C 440.02 630.77 437.03 621.633 437.03 612.013 C 437.03 587.113 457.287 566.857 482.186 566.857 C 507.086 566.857 527.343 587.113 527.343 612.013 C 527.343 636.912 507.086 657.169 482.186 657.169 Z " fill-rule="evenodd" fill="url(#_lgradient_1)"/></g></svg>