<?xml version="1.0" encoding="UTF-8" standalone="no"?><!-- Generator: Gravit.io --><svg xmlns="http://www.w3.org/2000/svg" xmlns:xlink="http://www.w3.org/1999/xlink" style="isolation:isolate" viewBox="413.066 369.568 138.242 138.238" width="138.242pt" height="138.238pt"><g><linearGradient id="_lgradient_7" x1="0" y1="0" x2="1" y2="0" gradientTransform="matrix(-113,146,-146,-113,532.135,374.152)" gradientUnits="userSpaceOnUse"><stop offset="0%" stop-opacity="1" style="stop-color:rgb(55,52,56)"/><stop offset="100%" stop-opacity="1" style="stop-color:rgb(80,76,80)"/></linearGradient><path d=" M 482.186 507.806 C 470.087 507.806 458.222 504.605 447.711 498.528 L 420.781 507.806 L 426.316 479.289 C 417.64 467.398 413.066 453.41 413.066 438.688 C 413.066 400.574 444.073 369.568 482.186 369.568 C 520.303 369.568 551.308 400.574 551.308 438.688 C 551.308 476.799 520.303 507.806 482.186 507.806 Z " fill="url(#_lgradient_7)"/><path d=" M 460.476 470.396 L 461.837 471.247 C 467.969 475.092 475.007 477.124 482.186 477.124 C 503.383 477.124 520.625 459.881 520.625 438.686 C 520.625 417.492 503.383 400.25 482.186 400.25 C 460.992 400.25 443.75 417.492 443.75 438.686 C 443.75 447.309 446.574 455.479 451.914 462.313 L 452.858 463.521 L 450.882 473.7 L 460.476 470.396 Z  M 482.186 483.843 C 474.283 483.843 466.53 481.751 459.665 477.78 L 442.071 483.843 L 445.686 465.212 C 440.02 457.442 437.03 448.306 437.03 438.686 C 437.03 413.787 457.287 393.531 482.186 393.531 C 507.086 393.531 527.343 413.787 527.343 438.686 C 527.343 463.586 507.086 483.843 482.186 483.843 Z " fill="rgb(254,254,254)"/><path d=" M 459.39 421.337 C 459.39 421.337 462.041 416.706 464.199 416.441 C 466.36 416.176 469.141 416.176 469.89 417.588 C 470.641 418.999 473.991 427.205 473.991 427.205 C 473.991 427.205 474.566 428.616 473.685 429.984 C 472.803 431.351 470.817 433.336 470.817 433.336 C 470.817 433.336 469.714 434.747 470.817 436.247 C 471.92 437.745 473.63 440.503 477.17 444.038 C 480.703 447.576 487.49 450.098 487.49 450.098 C 487.49 450.098 488.461 450.229 489.08 449.612 C 489.695 448.995 493.05 444.805 493.05 444.805 C 493.05 444.805 494.126 443.416 495.915 444.231 C 497.701 445.047 505.442 448.907 505.442 448.907 C 505.442 448.907 506.348 449.237 506.348 450.604 C 506.348 451.972 505.795 455.317 504.663 456.448 C 503.531 457.581 500.225 461.067 495.253 461.067 C 490.282 461.067 478.445 457.022 472.138 450.716 C 465.83 444.407 460.229 438.011 458.907 432.189 C 457.584 426.366 457.761 423.735 459.39 421.337 Z " fill="rgb(254,254,254)"/></g></svg>