<?xml version="1.0" encoding="UTF-8" standalone="no"?><!-- Generator: Gravit.io --><svg xmlns="http://www.w3.org/2000/svg" xmlns:xlink="http://www.w3.org/1999/xlink" style="isolation:isolate" viewBox="413.066 196.241 138.242 138.238" width="138.242pt" height="138.238pt"><g><path d=" M 482.186 334.479 C 470.087 334.479 458.222 331.279 447.711 325.202 L 420.781 334.479 L 426.316 305.963 C 417.64 294.071 413.066 280.084 413.066 265.361 C 413.066 227.248 444.073 196.241 482.186 196.241 C 520.303 196.241 551.308 227.248 551.308 265.361 C 551.308 303.473 520.303 334.479 482.186 334.479 Z " fill="rgb(0,173,89)"/><path d=" M 460.476 297.069 L 461.837 297.92 C 467.969 301.765 475.007 303.797 482.186 303.797 C 503.383 303.797 520.625 286.555 520.625 265.359 C 520.625 244.166 503.383 226.923 482.186 226.923 C 460.992 226.923 443.75 244.166 443.75 265.359 C 443.75 273.982 446.574 282.153 451.914 288.986 L 452.858 290.193 L 450.882 300.374 L 460.476 297.069 Z  M 482.186 310.516 C 474.283 310.516 466.53 308.424 459.665 304.453 L 442.071 310.516 L 445.686 291.885 C 440.02 284.116 437.03 274.979 437.03 265.359 C 437.03 240.46 457.287 220.204 482.186 220.204 C 507.086 220.204 527.343 240.46 527.343 265.359 C 527.343 290.259 507.086 310.516 482.186 310.516 Z " fill="rgb(254,254,254)"/><path d=" M 459.39 248.01 C 459.39 248.01 462.041 243.379 464.199 243.115 C 466.36 242.849 469.141 242.849 469.89 244.261 C 470.641 245.672 473.991 253.878 473.991 253.878 C 473.991 253.878 474.566 255.289 473.685 256.657 C 472.803 258.024 470.817 260.009 470.817 260.009 C 470.817 260.009 469.714 261.42 470.817 262.92 C 471.92 264.419 473.63 267.176 477.17 270.711 C 480.703 274.25 487.49 276.771 487.49 276.771 C 487.49 276.771 488.461 276.903 489.08 276.286 C 489.695 275.668 493.05 271.478 493.05 271.478 C 493.05 271.478 494.126 270.089 495.915 270.905 C 497.701 271.721 505.442 275.581 505.442 275.581 C 505.442 275.581 506.348 275.911 506.348 277.278 C 506.348 278.645 505.795 281.991 504.663 283.122 C 503.531 284.254 500.225 287.741 495.253 287.741 C 490.282 287.741 478.445 283.696 472.138 277.39 C 465.83 271.081 460.229 264.684 458.907 258.863 C 457.584 253.04 457.761 250.408 459.39 248.01 Z " fill="rgb(254,254,254)"/></g></svg>