<!--?xml version="1.0" encoding="UTF-8" standalone="no"?-->
<svg xmlns:dc="http://purl.org/dc/elements/1.1/" xmlns:cc="http://creativecommons.org/ns#" xmlns:rdf="http://www.w3.org/1999/02/22-rdf-syntax-ns#" xmlns:svg="http://www.w3.org/2000/svg" xmlns="http://www.w3.org/2000/svg" xmlns:xlink="http://www.w3.org/1999/xlink" id="svg70007" viewBox="0 0 1024 768" height="768px" width="1024px" version="1.1">
	<metadata id="metadata70013">
		<rdf:rdf>
			<cc:work rdf:about="">
				<dc:format>image/svg+xml</dc:format>
				<dc:type rdf:resource="http://purl.org/dc/dcmitype/StillImage"/>
			</cc:work>
		</rdf:rdf>
	</metadata>
	<defs id="defs70011"/>
	<linearGradient spreadMethod="pad" y2="30%" x2="-10%" y1="120%" x1="30%" id="3d_gradient2-logo-8f6770c9-449b-433c-8e6a-35449bc23ec8">
		<stop id="stop69988" stop-opacity="1" stop-color="#ffffff" offset="0%"/>
		<stop id="stop69990" stop-opacity="1" stop-color="#000000" offset="100%"/>
	</linearGradient>
	<linearGradient gradientTransform="rotate(-30)" spreadMethod="pad" y2="30%" x2="-10%" y1="120%" x1="30%" id="3d_gradient3-logo-8f6770c9-449b-433c-8e6a-35449bc23ec8">
		<stop id="stop69993" stop-opacity="1" stop-color="#ffffff" offset="0%"/>
		<stop id="stop69995" stop-opacity="1" stop-color="#cccccc" offset="50%"/>
		<stop id="stop69997" stop-opacity="1" stop-color="#000000" offset="100%"/>
	</linearGradient>
	<g id="logo-group">
		<image xlink:href="" id="container" x="272" y="144" width="480" height="480" style="display: none;" transform="translate(0 0)"/>
		<g id="logo-center" transform="translate(0 0)">
			<image xlink:href="" id="icon_container" x="0" y="0" style="display: none;"/>
			<g id="slogan" style="font-style:normal;font-weight:400;font-size:32px;line-height:1;font-family:Montserrat;font-variant-ligatures:none;text-align:center;text-anchor:middle" transform="translate(0 0)"/>
			<g id="title" style="font-style:normal;font-weight:700;font-size:72px;line-height:1;font-family:'Comfortaa Bold Alt2';font-variant-ligatures:none;text-align:center;text-anchor:middle" transform="translate(0 0)">
				<path id="path70016" style="font-style:normal;font-weight:700;font-size:72px;line-height:1;font-family:'Comfortaa Bold Alt2';font-variant-ligatures:none;text-align:center;text-anchor:middle" d="m 357.57519,-38.376 c -0.72,0.72 -1.008,1.584 -1.008,2.664 v 32.04 c 0,1.08 0.288,1.944 1.008,2.664 0.72,0.72 1.584,1.008 2.664,1.008 1.08,0 1.944,-0.288 2.664,-1.008 0.648,-0.72 1.008,-1.584 1.008,-2.664 v -32.04 c 0,-1.08 -0.36,-1.944 -1.008,-2.664 -0.72,-0.648 -1.584,-1.008 -2.664,-1.008 -1.08,0 -1.944,0.36 -2.664,1.008 z m 5.976,-15.48 c -0.936,-0.936 -2.016,-1.44 -3.312,-1.44 -1.296,0 -2.448,0.504 -3.384,1.44 -0.936,0.936 -1.368,2.016 -1.368,3.312 0,1.296 0.432,2.448 1.368,3.384 0.936,0.936 2.088,1.368 3.384,1.368 1.296,0 2.376,-0.432 3.312,-1.368 0.936,-0.936 1.44,-2.088 1.44,-3.384 0,-1.296 -0.504,-2.376 -1.44,-3.312 z" stroke-width="0" stroke-linejoin="miter" stroke-miterlimit="2" fill="#33393d" stroke="#33393d" transform="translate(0 305.74) translate(302.828565 50.936) scale(1) translate(-355.48719 55.296)"/>
				<path id="path70018" style="font-style:normal;font-weight:700;font-size:72px;line-height:1;font-family:'Comfortaa Bold Alt2';font-variant-ligatures:none;text-align:center;text-anchor:middle" d="m 410.83606,0.216 c 1.008,0 1.872,-0.36 2.592,-1.08 0.72,-0.72 1.008,-1.584 1.008,-2.592 V -21.96 c 0,-5.04 -1.8,-9.36 -5.328,-12.96 -3.6,-3.6 -7.992,-5.4 -13.032,-5.4 -5.112,0 -9.432,1.8 -13.032,5.4 -3.6,3.6 -5.4,7.92 -5.4,12.96 v 18.504 c 0,1.008 0.36,1.872 1.08,2.592 0.72,0.72 1.584,1.008 2.52,1.008 1.008,0 1.872,-0.288 2.592,-1.008 0.72,-0.72 1.008,-1.584 1.008,-2.592 V -21.96 c 0,-3.024 1.152,-5.688 3.312,-7.848 2.16,-2.232 4.824,-3.312 7.92,-3.312 3.096,0 5.688,1.08 7.92,3.312 2.16,2.16 3.24,4.824 3.24,7.848 v 18.576 c 0,0.936 0.36,1.8 1.08,2.52 0.72,0.72 1.584,1.08 2.52,1.08 z" stroke-width="0" stroke-linejoin="miter" stroke-miterlimit="2" fill="#5e6365" stroke="#5e6365" transform="translate(0 305.74) translate(339.98543500000005 65.912) scale(1) translate(-377.64406 40.32)"/>
				<path id="path70020" style="font-style:normal;font-weight:700;font-size:72px;line-height:1;font-family:'Comfortaa Bold Alt2';font-variant-ligatures:none;text-align:center;text-anchor:middle" d="m 469.41819,-55.152 c -0.72,0.72 -1.08,1.584 -1.08,2.664 v 20.664 h -33.408 v -20.664 c 0,-1.08 -0.36,-1.944 -1.08,-2.664 -0.72,-0.72 -1.584,-1.08 -2.664,-1.08 -1.08,0 -1.944,0.36 -2.664,1.08 -0.72,0.72 -1.08,1.584 -1.08,2.664 v 48.744 c 0,1.08 0.36,1.944 1.08,2.664 0.72,0.72 1.584,1.08 2.664,1.08 1.08,0 1.944,-0.36 2.664,-1.08 0.72,-0.72 1.08,-1.584 1.08,-2.664 V -25.2 h 33.408 v 21.456 c 0,1.08 0.36,1.944 1.08,2.664 0.72,0.72 1.584,1.08 2.664,1.08 1.008,0 1.872,-0.288 2.592,-1.008 0.72,-0.72 1.08,-1.584 1.08,-2.736 v -48.744 c 0,-1.08 -0.36,-1.944 -1.08,-2.664 -0.72,-0.72 -1.584,-1.08 -2.592,-1.08 -1.08,0 -1.944,0.36 -2.664,1.08 z" stroke-width="0" stroke-linejoin="miter" stroke-miterlimit="2" fill="#6e7173" stroke="#6e7173" transform="translate(0 305.74) translate(404.78356500000007 50) scale(1) translate(-427.44219 56.232)"/>
				<path id="path70022" style="font-style:normal;font-weight:700;font-size:72px;line-height:1;font-family:'Comfortaa Bold Alt2';font-variant-ligatures:none;text-align:center;text-anchor:middle" d="m 506.36094,0.288 c 4.752,0 8.928,-1.44 12.6,-4.464 0.792,-0.576 1.152,-1.368 1.296,-2.304 0.072,-1.008 -0.144,-1.8 -0.792,-2.592 -0.576,-0.72 -1.368,-1.152 -2.304,-1.224 -0.936,-0.072 -1.8,0.144 -2.52,0.792 -2.448,1.944 -5.184,2.88 -8.28,2.88 -3.6,0 -6.696,-1.224 -9.216,-3.816 -2.592,-2.52 -3.816,-5.616 -3.816,-9.216 0,-3.6 1.224,-6.696 3.816,-9.288 2.52,-2.52 5.616,-3.816 9.216,-3.816 2.952,0 5.616,0.936 7.992,2.736 2.304,1.8 3.816,4.104 4.608,6.912 h -12.6 c -0.936,0 -1.8,0.36 -2.448,1.008 -0.648,0.648 -1.008,1.512 -1.008,2.448 0,0.936 0.36,1.8 1.008,2.448 0.648,0.648 1.512,1.008 2.448,1.008 h 16.56 c 0.936,0 1.728,-0.36 2.376,-1.008 0.72,-0.648 1.08,-1.512 1.08,-2.448 0,-5.544 -2.016,-10.224 -5.904,-14.112 -3.888,-3.888 -8.568,-5.904 -14.112,-5.904 -5.544,0 -10.224,2.016 -14.112,5.904 -3.888,3.888 -5.832,8.568 -5.832,14.112 0,5.544 1.944,10.224 5.832,14.112 3.888,3.888 8.568,5.832 14.112,5.832 z" stroke-width="0" stroke-linejoin="miter" stroke-miterlimit="2" fill="#7d8081" stroke="#7d8081" transform="translate(0 305.74) translate(478.7583150000001 66.56) scale(1) translate(-486.41694 39.672)"/>
				<path id="path70024" style="font-style:normal;font-weight:700;font-size:72px;line-height:1;font-family:'Comfortaa Bold Alt2';font-variant-ligatures:none;text-align:center;text-anchor:middle" d="m 564.57744,-33.768 c -3.888,-3.888 -8.568,-5.904 -14.112,-5.904 -5.472,0 -10.224,2.016 -14.112,5.904 -3.888,3.888 -5.832,8.568 -5.832,14.112 0,5.544 1.944,10.224 5.832,14.112 3.888,3.888 8.64,5.832 14.112,5.832 4.968,0 9.36,-1.584 13.104,-4.824 v 1.368 c 0,1.008 0.288,1.8 1.008,2.448 0.648,0.72 1.44,1.008 2.448,1.008 0.936,0 1.728,-0.288 2.448,-1.008 0.648,-0.648 1.008,-1.44 1.008,-2.448 v -16.488 c 0,-5.544 -1.944,-10.224 -5.904,-14.112 z m -14.112,27.144 c -3.6,0 -6.696,-1.224 -9.216,-3.816 -2.592,-2.52 -3.816,-5.616 -3.816,-9.216 0,-3.6 1.224,-6.696 3.816,-9.216 2.52,-2.592 5.616,-3.888 9.216,-3.888 3.6,0 6.696,1.296 9.216,3.888 2.592,2.52 3.888,5.616 3.888,9.216 0,3.6 -1.296,6.696 -3.888,9.216 -2.52,2.592 -5.616,3.816 -9.216,3.816 z" stroke-width="0" stroke-linejoin="miter" stroke-miterlimit="2" fill="#8c8e90" stroke="#8c8e90" transform="translate(0 305.74) translate(537.8628150000001 66.56) scale(1) translate(-530.52144 39.672)"/>
				<path id="path70026" style="font-style:normal;font-weight:700;font-size:72px;line-height:1;font-family:'Comfortaa Bold Alt2';font-variant-ligatures:none;text-align:center;text-anchor:middle" d="m 580.97769,-55.224 c -0.72,0.72 -1.008,1.584 -1.008,2.592 v 39.312 c 0,2.592 0.432,4.896 1.368,6.912 0.864,2.016 2.16,3.6 3.816,4.752 1.656,1.152 3.528,1.656 5.616,1.656 h 0.144 c 1.44,0 2.592,-0.288 3.528,-1.008 0.864,-0.648 1.368,-1.512 1.368,-2.592 0,-1.008 -0.36,-1.872 -0.936,-2.592 -0.576,-0.648 -1.368,-1.008 -2.304,-1.008 h -1.8 c -1.08,0 -1.944,-0.576 -2.592,-1.728 -0.72,-1.152 -1.008,-2.592 -1.008,-4.392 v -39.312 c 0,-1.008 -0.36,-1.872 -1.008,-2.592 -0.72,-0.648 -1.584,-1.008 -2.592,-1.008 -1.08,0 -1.944,0.36 -2.592,1.008 z" stroke-width="0" stroke-linejoin="miter" stroke-miterlimit="2" fill="#9b9d9e" stroke="#9b9d9e" transform="translate(0 305.74) translate(602.3110650000001 50) scale(1) translate(-579.96969 56.232)"/>
				<path id="path70028" style="font-style:normal;font-weight:700;font-size:72px;line-height:1;font-family:'Comfortaa Bold Alt2';font-variant-ligatures:none;text-align:center;text-anchor:middle" d="m 619.48194,-7.2 c -2.088,0 -3.888,-0.72 -5.328,-2.232 -1.512,-1.44 -2.232,-3.24 -2.232,-5.328 v -16.92 h 6.408 c 0.864,0 1.656,-0.288 2.304,-0.936 0.576,-0.576 0.936,-1.368 0.936,-2.304 0,-0.864 -0.36,-1.656 -0.936,-2.304 -0.648,-0.576 -1.44,-0.936 -2.304,-0.936 h -6.408 v -10.152 c 0,-1.008 -0.36,-1.8 -1.08,-2.52 -0.72,-0.72 -1.512,-1.08 -2.52,-1.08 -1.008,0 -1.872,0.36 -2.592,1.08 -0.72,0.72 -1.008,1.512 -1.008,2.52 v 33.552 c 0,4.104 1.44,7.56 4.32,10.44 2.88,2.88 6.336,4.32 10.44,4.32 1.008,0 1.8,-0.288 2.52,-1.008 0.72,-0.72 1.08,-1.584 1.08,-2.592 0,-1.008 -0.36,-1.8 -1.08,-2.52 -0.72,-0.72 -1.512,-1.08 -2.52,-1.08 z" stroke-width="0" stroke-linejoin="miter" stroke-miterlimit="2" fill="#ababac" stroke="#ababac" transform="translate(0 305.74) translate(642.0633150000001 54.32) scale(1) translate(-604.72194 51.912)"/>
				<path id="path70030" style="font-style:normal;font-weight:700;font-size:72px;line-height:1;font-family:'Comfortaa Bold Alt2';font-variant-ligatures:none;text-align:center;text-anchor:middle" d="m 660.40606,-37.584 c -2.664,-1.44 -5.616,-2.16 -8.928,-2.16 -2.448,0 -4.68,0.432 -6.768,1.296 -2.16,0.864 -3.96,2.016 -5.472,3.528 v -17.64 c 0,-1.08 -0.36,-1.944 -1.008,-2.664 -0.72,-0.648 -1.584,-1.008 -2.664,-1.008 -1.08,0 -1.944,0.36 -2.664,1.008 -0.72,0.72 -1.008,1.584 -1.008,2.664 V -3.6 c 0,1.08 0.288,1.944 1.008,2.664 0.72,0.72 1.584,1.008 2.664,1.008 1.08,0 1.944,-0.288 2.664,-1.008 0.648,-0.72 1.008,-1.584 1.008,-2.664 v -20.304 c 0,-1.728 0.432,-3.24 1.368,-4.68 0.936,-1.368 2.232,-2.448 3.888,-3.312 1.656,-0.792 3.528,-1.224 5.544,-1.224 3.456,0 6.192,1.008 8.28,3.024 2.088,2.016 3.168,4.896 3.168,8.784 V -3.6 c 0,1.08 0.288,1.944 1.008,2.664 0.72,0.72 1.584,1.008 2.664,1.008 1.008,0 1.872,-0.288 2.592,-1.008 0.72,-0.72 1.08,-1.584 1.08,-2.664 v -17.712 c 0,-3.888 -0.792,-7.2 -2.232,-9.936 -1.512,-2.736 -3.6,-4.896 -6.192,-6.336 z" stroke-width="0" stroke-linejoin="miter" stroke-miterlimit="2" fill="#bababa" stroke="#bababa" transform="translate(0 305.74) translate(684.235435 50) scale(1) translate(-631.89406 56.232)"/>
			</g>
			<image xlink:href="" id="icon" x="0" y="0" style="display: none;"/>
		</g>
	</g>
</svg>
